<svg width="55" height="55" viewBox="0 0 55 55" fill="none" xmlns="http://www.w3.org/2000/svg">
<path d="M27.5 53.2812C41.7386 53.2812 53.2812 41.7386 53.2812 27.5C53.2812 13.2614 41.7386 1.71875 27.5 1.71875C13.2614 1.71875 1.71875 13.2614 1.71875 27.5C1.71875 41.7386 13.2614 53.2812 27.5 53.2812Z" fill="white"/>
<path d="M27.5 2.21875C41.4624 2.21875 52.7812 13.5376 52.7812 27.5C52.7812 41.4624 41.4624 52.7812 27.5 52.7812C13.5376 52.7812 2.21875 41.4624 2.21875 27.5C2.21875 13.5376 13.5376 2.21875 27.5 2.21875Z" stroke="black" stroke-opacity="0.05"/>
<g clip-path="url(#clip0_9330_73410)">
<path d="M16.3993 13.6406H29.1451C31.8509 13.6406 34.0444 15.8341 34.0444 18.5399V24.9016C34.0444 27.6074 31.8509 29.8009 29.1451 29.8009H22.7402L19.6742 33.3043C18.7648 34.3434 17.0532 33.7003 17.0532 32.3194V29.8009H16.3993C13.6934 29.8009 11.5 27.6074 11.5 24.9016V18.5399C11.5 15.8341 13.6934 13.6406 16.3993 13.6406Z" fill="#FFBE2A"/>
<path d="M19.6159 33.368C18.6932 34.3158 17.0533 33.6713 17.0533 32.3198V29.801H16.3992C13.6936 29.801 11.5 27.6073 11.5 24.9018V18.5398C11.5 15.8343 13.6936 13.6406 16.3992 13.6406H18.5381C15.8319 13.6406 13.6389 15.8342 13.6389 18.5398V24.9018C13.6389 27.6073 15.8319 29.8009 18.5381 29.8009H19.1923V32.3197C19.1923 32.7505 19.359 33.1098 19.6159 33.368Z" fill="#FFD064"/>
<path d="M38.6007 21.5586H25.8548C23.1491 21.5586 20.9556 23.752 20.9556 26.4578V32.8196C20.9556 35.5253 23.149 37.7188 25.8548 37.7188H32.2597L35.3257 41.2223C36.2351 42.2614 37.9467 41.6183 37.9467 40.2373V37.7188H38.6006C41.3064 37.7188 43.4999 35.5254 43.4999 32.8196V26.4578C43.4999 23.7521 41.3065 21.5586 38.6007 21.5586Z" fill="#039D55"/>
<path d="M28.1829 37.719H25.8547C23.1492 37.719 20.9556 35.5253 20.9556 32.8198V26.4578C20.9556 23.7523 23.1492 21.5586 25.8547 21.5586H28.1829C25.4774 21.5586 23.2838 23.7522 23.2838 26.4578V32.8198C23.2838 35.5253 25.4774 37.719 28.1829 37.719Z" fill="#15AD66"/>
<path d="M30.9475 26.6657C30.9458 26.6613 30.9441 26.6569 30.9423 26.6526C30.8465 26.4197 30.6196 26.2671 30.3701 26.2696C30.1183 26.2698 29.8939 26.4205 29.7986 26.6536C29.7971 26.6572 29.7956 26.6609 29.7943 26.6646L27.5547 32.5449C27.4598 32.7942 27.5849 33.0732 27.8341 33.1681C28.0831 33.2629 28.3623 33.1379 28.4573 32.8887L28.8966 31.7352H31.8284L32.2632 32.8873C32.3361 33.0807 32.52 33.1999 32.715 33.1998C32.7716 33.1998 32.8293 33.1897 32.8855 33.1686C33.135 33.0744 33.2609 32.7958 33.1667 32.5462L30.9475 26.6657ZM29.2644 30.7694L30.3691 27.8687L31.4638 30.7694H29.2644Z" fill="#F9F6F9"/>
<path d="M26.9057 26.3477H24.5061C24.2394 26.3477 24.0232 26.5638 24.0232 26.8305V32.7512C24.0232 33.0178 24.2394 33.234 24.5061 33.234C24.7728 33.234 24.9889 33.0178 24.9889 32.7512V30.2177H26.7151C26.9818 30.2177 27.1979 30.0015 27.1979 29.7348C27.1979 29.4682 26.9818 29.252 26.7151 29.252H24.9889V27.3135H26.9057C27.1724 27.3135 27.3886 27.0973 27.3886 26.8307C27.3886 26.5639 27.1724 26.3477 26.9057 26.3477Z" fill="#F9F6F9"/>
<path d="M40.291 32.4059L39.731 31.8459C40.157 31.2702 40.4094 30.5588 40.4094 29.7893C40.4094 27.8787 38.855 26.3242 36.9443 26.3242C35.0336 26.3242 33.4792 27.8787 33.4792 29.7893C33.4792 31.6999 35.0336 33.2543 36.9443 33.2543C37.7379 33.2543 38.4695 32.9855 39.0543 32.5351L39.6081 33.0888C39.7024 33.1831 39.826 33.2302 39.9496 33.2302C40.0731 33.2302 40.1967 33.1831 40.2911 33.0888C40.4796 32.9002 40.4796 32.5945 40.291 32.4059ZM36.9443 32.2885C35.5662 32.2885 34.4451 31.1673 34.4451 29.7893C34.4451 28.4112 35.5662 27.29 36.9443 27.29C38.3224 27.29 39.4436 28.4112 39.4436 29.7893C39.4436 30.292 39.2939 30.7601 39.0376 31.1524L38.383 30.4978C38.1944 30.3092 37.8887 30.3092 37.7 30.4978C37.5114 30.6864 37.5114 30.9922 37.7 31.1808L38.3639 31.8447C37.9604 32.1242 37.4712 32.2885 36.9443 32.2885Z" fill="#F9F6F9"/>
</g>
<defs>
<clipPath id="clip0_9330_73410">
<rect width="32" height="32" fill="white" transform="translate(11.5 11.6875)"/>
</clipPath>
</defs>
</svg>
